<svg version="1.2" xmlns="http://www.w3.org/2000/svg" viewBox="0 0 339 39" width="339" height="39"><style>.a{fill:#ffffff}.b{fill:#f0581a}</style><path class="a" d="m1.8 28.2l-1.8 1.1c1.3 3.9 4.5 7.3 9.3 7.3 4.6 0 8.2-3.1 8.2-7.6 0-5-3.9-7.1-7-8.2-4.5-1.7-6.8-3.4-6.8-6.5 0-2.5 1.8-4.4 5.1-4.4 3.6 0 5.4 2.4 6.4 4.6l1.9-1.1c-1.1-2.7-3.7-5.6-8.2-5.6-4.4 0-7.6 2.7-7.6 6.8 0 4.8 4.2 6.7 7.5 7.9 3.2 1.2 6.4 2.6 6.4 6.7 0 3.1-2.2 5.3-5.8 5.3-4.1 0-6.3-2.8-7.6-6.3z"/><path fill-rule="evenodd" class="a" d="m29.3 8.1c5.2 0 9.2 3.2 9.2 8.3 0 5.2-4 8.4-9.2 8.4h-4.4v11.5h-2.2v-28.2zm-4.4 2.1v12.5h4.4c4.1 0 6.9-2.2 6.9-6.3 0-4-2.8-6.2-6.9-6.2z"/><path fill-rule="evenodd" class="a" d="m50.1 8.1c5.4 0 9.5 3 9.5 8.2 0 4.6-3.2 7.4-7.6 8l8.5 12h-2.7l-8.3-11.8h-3.7v11.8h-2.2v-28.2zm-4.2 2v12.4h4.2c4.3 0 7.4-2.2 7.4-6.2 0-4.1-3.1-6.2-7.4-6.2z"/><path fill-rule="evenodd" class="a" d="m74.1 0c2.1 0 4.1 1.6 4.1 4 0 2.3-1.8 3.8-3.7 4l12 28.3h-2.5l-3.8-9.5h-12.2l-3.9 9.5h-2.4l12-28.3c-2-0.2-3.7-1.7-3.7-4 0-2.4 2-4 4.1-4zm0 6.8c1.3 0 2.7-1.1 2.7-2.8 0-1.6-1.4-2.7-2.7-2.7-1.4 0-2.7 1.1-2.7 2.7 0 1.7 1.3 2.8 2.7 2.8zm-5.2 17.9h10.4l-5.2-12.6z"/><path class="a" d="m90.2 8.1v28.2h2.2v-14.2l12.2 14.2h2.9l-13-15 12.4-13.2h-2.9l-11.6 12.6v-12.6z"/><path fill-rule="evenodd" class="a" d="m117.7 36.3h-6.5v-28.2h6.1c5 0 8.2 2.4 8.2 6.8 0 3.2-2 5.2-5.1 5.9 3.7 0.8 6.7 3.1 6.7 7.3 0 5.6-4 8.2-9.4 8.2zm-4.3-26.2v9.8h3.9c3.3 0 6-1.6 6-4.9 0-3.1-2.4-4.9-6-4.9zm4.3 24.2c4.3 0 7.1-2.1 7.1-6.3 0-4-3.3-6.2-7.1-6.2h-4.3v12.5z"/><path fill-rule="evenodd" class="a" d="m147.5 26.8h-12.1l-3.9 9.5h-2.5l12.4-29.3 12.5 29.3h-2.5zm-11.3-2.1h10.4l-5.2-12.6z"/><path class="a" d="m179 8.1v23.6l-21.4-24.7v29.3h2.2v-23.5l21.4 24.6v-29.3z"/><path class="a" d="m187.9 8.1v28.2h2.2v-14.2l12.3 14.2h2.8l-13-15 12.4-13.2h-2.8l-11.7 12.6v-12.6z"/><path class="a" d="m208.9 8.1v28.2h15.1v-2.1h-12.9v-12.3h12.1v-2.1h-12.1v-9.6h12.9v-2.1z"/><path class="a" d="m251.8 8.1v23.6l-21.4-24.7v29.3h2.2v-23.5l21.4 24.6v-29.3z"/><path class="b" d="m257.9 10.2h7.4v26.1h2.3v-26.1h7.4v-2.1h-17.1z"/><path class="b" d="m278.9 8.1v28.2h15.1v-2.1h-12.9v-12.3h12.1v-2.1h-12.1v-9.6h12.9v-2.1z"/><path class="b" d="m314.6 8.1l-6.7 11.5-6.7-11.5h-2.6l8.1 13.4-9.1 14.8h2.6l7.6-12.8 7.4 12.8h2.7l-9-14.8 8.4-13.4z"/><path class="b" d="m320.2 10.2h7.4v26.1h2.2v-26.1h7.4v-2.1h-17z"/></svg>
